<svg xmlns="http://www.w3.org/2000/svg" width="1630.735" height="99.998" viewBox="0 0 1630.735 99.998">
  <g id="anthropologie" transform="translate(-567 -513.999)">
    <path id="Rectangle_1" data-name="Rectangle 1" d="M31.069,70.1l-8.634,20.08c5.83,0,8.642-.245,10.981-.245,1.635,0,3.5,1.635,3.475,4.251a3.685,3.685,0,0,1-3.475,3.973c-2.338,0-3.516-1.169-15.208-1.169-11.218,0-12.591,1.185-14.717,1.185C1.627,98.18,0,96.758,0,94.191c0-2.6,1.635-4.235,3.491-4.235,2.338,0,4.211.245,10.515.245L51.878,3.292c.687-2.109,1.39-3.27,3.712-3.27,2.338,0,2.8.94,3.728,3.27L95.98,90.176c7.506,0,8.209-.245,10.547-.245,1.652,0,3.5,1.635,3.5,4.251a3.707,3.707,0,0,1-3.5,3.973c-2.338,0-3.042-1.169-18.911-1.169H87.37c-14.962,0-16.352,1.169-18.707,1.169a3.732,3.732,0,0,1-3.516-3.982,3.965,3.965,0,0,1,3.516-4.235c2.33,0,3.042.245,9.828.245l-8.405-20.1H31.069Zm35.509-8.176L50.937,24.3,34.585,61.929H66.578Zm97.909,28.247c9.566,0,10.743-.245,13.057-.245,1.881,0,3.516,1.635,3.516,4.251,0,2.559-1.635,3.973-3.516,3.973-2.314,0-3.254-1.169-16.8-1.169h-.458c-13.572,0-14.742,1.169-17.064,1.169a3.7,3.7,0,0,1-3.491-3.982,3.936,3.936,0,0,1,3.491-4.235c2.322,0,3.483.262,13.065.245V9.121c-9.582,0-10.735.245-13.065.245a3.711,3.711,0,0,1-3.491-3.99,3.919,3.919,0,0,1,3.491-4.2c2.322,0,3.483,1.169,17.064,1.169h2.093c2.338,0,4.906-.2,6.541-.2,2.8,0,4.211,1.145,7.473,5.829L218.925,68.96V9.129c-9.811,0-10.76.245-13.1.245-1.881,0-3.516-1.406-3.516-3.99s1.635-4.2,3.516-4.2c2.338,0,3.516,1.161,16.8,1.161h.491c13.532,0,14.717-1.161,17.047-1.161,1.635,0,3.475,1.635,3.475,4.2a3.691,3.691,0,0,1-3.467,3.982c-2.338,0-3.516-.245-13.1-.245V94.4c0,4.2-2.126,5.38-3.965,5.38-2.355,0-3.27-.924-5.151-3.27l-53.5-76.853V90.184ZM357.445,33.42A3.691,3.691,0,0,1,353.5,29.9c0-16.809-3.745-21.036-17.055-21.036h-9.811V90.176c11.2,0,12.591-.245,14.938-.245,1.88,0,3.516,1.635,3.516,4.251,0,2.559-1.635,3.973-3.516,3.973-2.347,0-3.761-1.169-22.648-1.169h-.957c-19.132,0-20.539,1.169-22.869,1.169a3.732,3.732,0,0,1-3.516-3.982c0-2.6,1.864-4.235,3.516-4.235,2.33,0,3.745.245,14.962.245l-.033-81.317h-9.566c-13.556,0-17.293,4.227-17.293,21.036a3.635,3.635,0,0,1-3.745,3.516,3.488,3.488,0,0,1-3.728-3.516c0-2.322.948-8.854.948-18.445V5.131c0-2.567,1.611-4.186,3.5-4.186,2.1,0,9.362,1.169,13.082,1.169h50.471c3.516,0,10.735-1.169,12.837-1.169,1.881,0,3.5,1.619,3.5,4.186v6.336c0,9.582,1.169,16.106,1.169,18.436a3.536,3.536,0,0,1-3.777,3.516Zm76.643,18.232.016,38.524c7.473,0,8.626-.245,10.956-.245,1.856,0,3.516,1.635,3.516,4.251,0,2.559-1.66,3.973-3.516,3.973-2.338,0-4.906-1.169-18.691-1.169h-1.161c-18.928,0-20.318,1.169-22.648,1.169-1.88,0-3.532-1.414-3.532-3.982,0-2.6,1.652-4.235,3.516-4.235,2.355,0,3.737.245,14.962.245V9.121c-11.226,0-12.616.245-14.962.245-1.864,0-3.516-1.406-3.516-3.99s1.652-4.2,3.516-4.2c2.355,0,3.737,1.169,22.664,1.169h1.161c15.208,0,16.352-1.161,18.691-1.161,1.856,0,3.516,1.635,3.516,4.211s-1.66,3.982-3.516,3.982c-2.338,0-4.677-.245-10.972-.245V43.484h41.339V9.146c-7.228,0-8.618.229-10.956.229-1.856,0-3.516-1.39-3.516-3.982,0-2.575,1.66-4.2,3.516-4.2,2.338,0,3.491,1.169,18.911,1.169h.948C503.463,2.36,504.649,1.2,507,1.2c1.856,0,3.483,1.635,3.483,4.211S508.851,9.391,507,9.391c-2.371,0-3.54-.245-14.962-.245V90.209c11.422.025,12.591-.245,14.962-.245,1.856,0,3.483,1.635,3.483,4.251,0,2.559-1.635,3.973-3.491,3.973-2.371,0-3.516-1.169-22.681-1.169h-.932c-15.175,0-16.565,1.177-18.9,1.177-1.856,0-3.516-1.414-3.516-3.982,0-2.6,1.635-4.235,3.516-4.235,2.338,0,3.957.221,10.956.221V51.644H434.089ZM635.7,72.459c0,9.811-.695,10.956-.695,15.877,0,3.72,1.414,6.05,4.219,6.05,3.05,0,3.516-2.093,3.516-4.881a3.624,3.624,0,1,1,7.244-.245c0,7.236-6.754,10.735-11.692,10.735-11.651,0-19.157-5.372-19.157-27.553,0-15.436-2.559-21.5-19.623-21.5H590.4V90.184c11.2,0,12.608-.245,14.946-.245,1.864,0,3.491,1.635,3.491,4.235,0,2.567-1.635,3.982-3.491,3.982-2.338,0-3.745-1.169-22.672-1.169h-1.161c-18.92,0-20.318,1.169-22.664,1.169-1.848,0-3.483-1.414-3.467-3.982-.016-2.6,1.619-4.235,3.483-4.235,2.355,0,3.761.262,14.962.245V9.121c-11.2,0-12.608.245-14.962.245-1.856,0-3.491-1.406-3.491-3.99s1.635-4.2,3.5-4.2c2.355,0,3.761,1.169,21.5,1.169,4.66,0,13.327-.45,19.157-.45,25,0,36.22,10.514,36.22,22.647,0,10.759-10.972,19.622-22.19,21.968,14.693,3.728,22.157,14.945,22.157,25.934ZM596.941,8.851H590.4v35.32l5.135.025c14.946-.025,22.91-4.709,22.91-18.943,0-11.2-5.4-16.384-21.5-16.384ZM727.294,99.325c-24.283,0-44.838-19.884-44.838-49.545C682.464,20.1,702.986.022,727.269.022c24.528,0,44.871,20.072,44.871,49.766,0,29.654-20.326,49.545-44.863,49.545Zm0-91.6C710.247,7.723,701.13,18,701.13,49.788c0,31.763,9.116,42.024,26.164,42.024,17.039.025,26.164-10.252,26.164-42.024S744.341,7.723,727.294,7.723ZM850.647,90.176c11.226.025,12.591-.245,14.921-.245,1.913,0,3.532,1.635,3.532,4.251,0,2.559-1.611,3.973-3.516,3.973-2.338,0-3.712-1.169-22.648-1.169h-1.145c-18.952,0-20.334,1.169-22.673,1.169-1.881,0-3.516-1.414-3.516-3.982,0-2.6,1.635-4.235,3.516-4.235,2.339,0,3.72.245,14.93.245V9.121c-11.2,0-12.591.245-14.93.245-1.881,0-3.516-1.406-3.516-3.982s1.635-4.211,3.516-4.211c2.567,0,3.5,1.169,20.326,1.169,7.931,0,11.692-.2,20.089-.2,25.673,0,39.475,11.9,39.475,28.476,0,16.6-13.8,28.763-39.475,28.763h-8.9v30.8Zm0-37.363h8.887c16.827,0,22.893-6.083,22.893-22.2,0-15.649-6.067-21.748-22.893-21.748h-8.9V52.8Zm128.488,46.52c-24.3,0-44.83-19.892-44.83-49.545,0-29.7,20.539-49.774,44.854-49.774,24.512,0,44.846,20.055,44.846,49.75,0,29.662-20.334,49.545-44.871,49.545Zm.024-91.626C962.113,7.707,953,17.984,953,49.771,953,81.534,962.113,91.8,979.16,91.8c17.023,0,26.147-10.252,26.147-42.024S996.183,7.723,979.16,7.723Zm147.187,82.936c13.3,0,17.064-4.439,17.047-21.036.016-1.88,1.415-3.491,3.965-3.491a3.3,3.3,0,0,1,3.516,3.491c0,2.338-.94,8.65-.94,18.208v6.541a3.711,3.711,0,0,1-3.5,3.982c-2.1,0-9.345-.9-13.1-.9l-39.736-.474c-18.92,0-20.3,1.145-22.632,1.145-1.88,0-3.516-1.406-3.516-3.973,0-2.6,1.635-4.235,3.516-4.235,2.322,0,3.7.245,14.93.262V9.121c-11.226,0-12.608.245-14.93.245-1.88,0-3.516-1.406-3.516-3.982s1.635-4.211,3.516-4.211c2.322,0,3.7,1.169,22.648,1.169h1.186c18.92,0,20.3-1.161,22.7-1.161,1.848,0,3.475,1.635,3.475,4.211s-1.635,3.982-3.516,3.982c-2.355,0-3.737-.245-14.938-.245V90.675h23.825Zm103.265,8.666c-24.316,0-44.863-19.884-44.863-49.545,0-29.695,20.58-49.766,44.871-49.766,24.529,0,44.838,20.055,44.838,49.75,0,29.662-20.309,49.545-44.822,49.545Zm0-91.6c-17.088,0-26.18,10.277-26.18,42.065,0,31.763,9.1,42.024,26.188,42.024,17.039,0,26.164-10.252,26.164-42.024,0-31.788-9.1-42.065-26.147-42.065Zm88.769,42.065c0-29.695,20.547-49.766,44.846-49.766,13.327,0,19.622,4.439,25.248,9.108a4.338,4.338,0,0,0,2.1-3.745c0-2.093.22-4.415,3.736-4.415,3.27,0,3.745,1.611,3.745,4.17v29c0,1.864-.245,4.415-3.745,4.415-3.516,0-3.736-2.551-3.736-4.415,0-14.5-11.226-26.408-25.935-26.408-17.767,0-27.578,11.2-27.578,42.056,0,30.61,9.811,42.048,27.578,42.024,10.04,0,20.1-3.924,20.1-26.367-7.726,0-8.887.221-11.2.221a3.885,3.885,0,0,1-3.516-3.99,3.95,3.95,0,0,1,3.516-4.211c2.33,0,3.238,1.169,18.887,1.169h.94c16.124,0,16.6-1.161,18.936-1.161,1.864,0,3.491,1.619,3.491,4.211a3.69,3.69,0,0,1-3.475,3.973c-2.346,0-3.516-.245-10.989-.245,0,7.015-2.306,33.9-38.076,33.9-24.283,0-44.846-19.892-44.846-49.545Zm182.247,40.184c1.848,0,3.475,1.635,3.475,4.227,0,2.567-1.635,3.982-3.475,3.982-2.339,0-3.777-1.169-22.7-1.169h-1.145c-18.9,0-20.318,1.185-22.648,1.185-1.856,0-3.467-1.414-3.467-3.982,0-2.6,1.611-4.235,3.475-4.235,2.33,0,3.745.229,14.962.229V9.129c-11.2,0-12.632.245-14.962.245-1.856,0-3.467-1.406-3.467-3.982s1.611-4.211,3.475-4.211c2.347,0,3.745,1.161,22.648,1.161h1.145c18.936.025,20.359-1.161,22.713-1.161,1.848,0,3.491,1.635,3.475,4.2,0,2.584-1.635,3.982-3.475,3.982-2.338,0-3.778-.245-14.979-.245V90.209c11.2-.016,12.64-.245,14.979-.245Zm91.328-45.785c5.609,0,10.3-4.415,10.3-11.217,0-2.109.433-3.965,3.025-3.965,2.559,0,2.559,1.856,2.559,3.965,0,2.346-.466,5.372-.466,13.556v2.33c0,8.176.466,11.2.466,13.572,0,2.093,0,3.957-2.551,3.957-2.6,0-3.042-1.88-3.042-3.965,0-6.786-4.685-11.225-10.286-11.225h-7.931V90.667h21.945c13.572,0,17.047-4.439,17.047-21.036,0-1.88,1.415-3.467,3.974-3.491a3.369,3.369,0,0,1,3.737,3.491c0,2.338-.924,8.65-.924,18.208v6.541a3.861,3.861,0,0,1-3.5,3.99c-2.126,0-9.386-.9-13.107-.9l-38.084-.474c-18.92,0-20.334,1.161-22.7,1.161-1.864,0-3.475-1.414-3.475-3.982,0-2.6,1.635-4.235,3.467-4.235,2.371,0,3.777.245,14.987.245V9.121c-11.2,0-12.624.245-14.987.245-1.864,0-3.475-1.406-3.475-3.99s1.6-4.2,3.467-4.2c2.371,0,3.777,1.169,22.689,1.169l33.882-.2c3.737,0,10.972-1.177,13.082-1.177,1.864,0,3.516,1.619,3.516,4.186v6.32c0,9.59.932,16.123.932,18.445a3.434,3.434,0,0,1-3.54,3.516,3.657,3.657,0,0,1-3.925-3.516c0-16.809-3.761-21.036-17.088-21.036h-17.988v35.3h7.931Z" transform="translate(567 514.002)"/>
  </g>
</svg>
