<svg xmlns="http://www.w3.org/2000/svg" width="162.388" height="175" viewBox="0 0 162.388 175">
  <g id="cart" transform="translate(0.294 0.294)">
    <path id="Path_140" data-name="Path 140" d="M63.519,114.722h95.764a20.163,20.163,0,0,0,19.995-19.995V54.738h0a10.284,10.284,0,0,0,0-1.052h0c-.036-.072.036.108,0,0-.036-.072.036-.981,0-1.052h0c-.036-.072.036.108,0,0-.036-.072.036.036,0,0h0c-.036-.072.036-.981,0-1.052s-1.016.072-1.052,0,.072.072,0,0h0c-.036-.072.036.036,0,0-.072-.072.072-.981,0-1.052h0c-.072-.036-.981.036-1.052,0h0c-.072-.036.072.072,0,0h0c-.072-.036-.981.036-1.052,0h0c-.072-.036.072,0,0,0a10.28,10.28,0,0,1,0-1.052,10.29,10.29,0,0,0-1.052,0h0L53,32.639V15.8c0-.179.036.144,0,0,0-.036.036.072,0,0V14.749h0V13.7c-.036-.108.072.108,0,0h0c-.036-.072.072.072,0,0h0c-.036-.072-1.016-.981-1.052-1.052h0c-.072-.072.108.072,0,0h0l-1.052-1.052c-.108-.072.072.036,0,0h0L23.53.016c-2.477-1.041-5.273.68-6.314,3.157s.68,5.273,3.157,6.314l23.152,9.471V125.246c0,10.051,8.162,18.738,17.89,19.995-1.759,2.944-3.157,5.81-3.157,9.471,0,10.805,8.173,19.995,18.942,19.995a20.356,20.356,0,0,0,19.995-19.995c0-3.59-.382-6.6-2.1-9.471h43.147c-1.723,2.908-3.157,5.881-3.157,9.471a19.995,19.995,0,1,0,39.989,0c0-10.769-9.225-18.942-19.995-18.942H63.519A10.833,10.833,0,0,1,53,125.246V112.617C55.939,114.341,59.822,114.722,63.519,114.722Zm24.2,39.989c0,5.456-4.051,10.524-9.471,10.524a11.068,11.068,0,0,1-10.524-10.524c0-5.421,5.1-9.471,10.524-9.471A9.218,9.218,0,0,1,87.723,154.712Zm76.822,0c0,5.456-4.051,10.524-9.471,10.524s-9.471-5.1-9.471-10.524a9.471,9.471,0,0,1,18.942,0Zm-5.262-49.461H63.519A10.833,10.833,0,0,1,53,94.727V43.162L169.807,58.947v35.78A10.807,10.807,0,0,1,159.283,105.251Z" transform="translate(-17.2 0)" fill="#3d4245"/>
  </g>
</svg>
