<svg xmlns="http://www.w3.org/2000/svg" width="274.317" height="100" viewBox="0 0 274.317 100">
	<g id="cb2" transform="translate(-40.344 -44.459)">
		<path id="Path_1" data-name="Path 1" d="M81.7,36.908l15.868-9.172a50.01,50.01,0,1,0,0,61.563L81.7,80.139a31.966,31.966,0,1,1,0-43.231Z" transform="translate(32.173 35.932)"/>
		<path id="Path_2" data-name="Path 2" d="M75.651,85.334a13.8,13.8,0,0,0,0-18.64c-2.765-3.066-6.889-4.513-13-4.513h-19.4V89.833h19.4c6.106,0,10.244-1.433,13-4.5ZM43.246,24.42V46.474H57.065c5.289,0,8.443-1.071,10.887-3.676a10.681,10.681,0,0,0,0-14.7c-2.444-2.611-5.591-3.682-10.887-3.682H43.246ZM82.091,50.987a28.569,28.569,0,0,1,14.77,25.141A28.974,28.974,0,0,1,76.8,103.745a37.705,37.705,0,0,1-4.807,1.1,53.424,53.424,0,0,1-8.911.7H25.423V8.72H58.19c9.8,0,16.263,2,21.6,6.729a25.633,25.633,0,0,1,8.9,19.3c0,6.36-3.174,13.35-6.6,16.243Z" transform="translate(130.427 37.031)"/>
		<path id="Path_3" data-name="Path 3" d="M59.781,89.636c1.232-6.769,8.556-11.315,17.046-16.584,12.011-7.479,25.643-15.961,25.643-33.583,0-17.642-13.324-30.939-31.026-30.939C48.56,8.53,39.769,28.7,39.7,28.9l-.107.234,13.484,8.925.141-.3c.074-.121,6.7-12.493,17.528-12.493h.12a13.66,13.66,0,0,1,10.317,4.66,13.963,13.963,0,0,1,3.354,11.054C83.6,48.722,75.8,53.79,66.817,59.648,53.976,67.99,39.434,77.451,39.434,97.8a57.78,57.78,0,0,0,.676,7.485l.174,1.319h64.154V89.629H59.788Z" transform="translate(210.223 35.949)"/>
	</g>
</svg>
