<svg xmlns="http://www.w3.org/2000/svg" width="689.924" height="100" viewBox="0 0 689.924 100">
  <g id="crateandbarrel" transform="translate(0 -0.32)">
    <path id="Path_31" data-name="Path 31" d="M79.093,43.393C77.582,34.073,67.506,18.2,48.363,18.2c-17.128.252-30.73,13.854-30.73,32.494,0,16.877,14.106,31.486,30.982,31.486,18.64,0,28.212-15.869,29.723-21.159H95.97c-3.023,16.121-19.4,39.043-47.1,39.043C21.411,100.068,0,77.4,0,50.194,0,23.242,21.411.32,48.363.32c26.448,0,45.844,20.907,48.363,43.073Z" transform="translate(0 0)"/>
    <path id="Path_32" data-name="Path 32" d="M66.2,24.577A16.83,16.83,0,0,0,49.072,41.706V79.489H31.44V10.723H48.317l.756,7.053h.252c5.29-6.3,10.831-8.816,16.121-8.816,2.015,0,3.778.252,4.282.756V24.577a16.316,16.316,0,0,1-3.526,0Z" transform="translate(67.552 18.564)"/>
    <path id="Path_33" data-name="Path 33" d="M104.365,66.231V32.981C104.365,16.357,93.282,8.8,74.894,8.8c-8.06,0-14.106,1.763-18.892,5.038C50.46,17.364,47.69,23.41,46.934,31.47H62.3c.5-2.519,1.259-5.29,3.275-6.8a15.841,15.841,0,0,1,9.32-3.023c6.3,0,12.091,3.275,12.091,8.564,0,7.809-9.572,5.793-20.4,8.06C54.994,40.286,42.4,46.583,42.4,60.437c0,13.1,12.594,21.411,24.937,21.411,8.06,0,13.854-2.015,20.907-8.06a50.436,50.436,0,0,0,1.008,6.045h17.632c-2.267-4.03-2.519-8.816-2.519-13.6ZM87.74,50.866c0,4.786-.252,10.076-3.275,12.594-3.023,2.771-7.053,4.534-12.846,4.534-10.579,0-11.587-6.8-11.587-8.564,0-1.511,1.008-5.29,3.778-7.053,3.023-2.015,7.557-3.275,13.854-4.786,5.29-1.259,8.312-2.015,10.076-3.023v6.3Z" transform="translate(91.101 18.22)"/>
    <path id="Path_34" data-name="Path 34" d="M88.608,94.18h-.5c-13.854,0-16.877-8.564-16.877-16.625v-40.3H62.16V25.414h9.068V2.24h17.38V25.162h12.343V37H88.608V71.51c0,6.3,1.763,8.816,7.809,8.816h5.29v13.35c-9.824.5-13.1.5-13.1.5Z" transform="translate(133.558 4.125)"/>
    <path id="Path_35" data-name="Path 35" d="M107.949,66.735c-8.564,0-16.121-6.8-16.121-15.617V50.11h48.867c0-23.426-12.594-41.31-33.753-41.31s-33.5,18.136-33.5,35.768c0,18.64,12.343,37.28,35.264,37.28,23.929,0,31.234-20.4,31.234-23.426H121.8a15.218,15.218,0,0,1-13.854,8.312Zm-1.259-43.577c8.312,0,14.61,5.793,14.61,14.358H91.828a14.541,14.541,0,0,1,14.861-14.358Z" transform="translate(157.794 18.22)"/>
    <path id="Path_36" data-name="Path 36" d="M161.355,75.771c6.549-8.312,9.572-19.9,10.327-27.708H156.569c0,1.008-5.038,14.861-5.038,14.861-3.778-5.038-7.809-10.327-11.839-15.869,5.542-3.778,15.365-10.579,15.365-23.426,0-13.6-11.335-22.67-24.181-22.67C116.267.96,107.7,12.547,107.7,22.119c0,11.083,8.816,19.9,9.824,21.411-9.068,4.03-22.166,13.1-22.166,29.723,0,11.335,9.32,25.693,27.96,25.693a40.692,40.692,0,0,0,27.2-10.579s3.778,5.038,6.3,8.564h19.9c-5.793-8.312-10.579-14.861-15.365-21.159ZM131.38,15.066c4.03,0,8.564,3.275,8.564,8.312,0,4.786-4.786,9.068-9.068,12.594-3.778-5.038-7.557-9.068-7.557-13.6,0-3.778,3.778-7.3,8.06-7.3ZM123.32,83.58c-5.793,0-10.579-5.038-10.579-11.083,0-3.526,1.763-7.3,5.542-10.579a66.889,66.889,0,0,1,8.06-6.045c2.519,3.275,8.564,11.587,14.861,19.9-3.778,2.771-9.32,7.809-17.884,7.809Z" transform="translate(204.892 1.375)"/>
    <path id="Path_37" data-name="Path 37" d="M177.6,45.177c1.008-.756,14.358-4.534,14.358-19.9,0-9.824-4.786-23.678-31.99-23.678H121.68V95.3H170.8c10.579,0,24.685-9.32,24.685-24.937,0-20.151-16.877-24.685-17.884-25.189ZM139.312,16.21h20.4c10.579,0,14.61,5.542,14.61,11.335,0,9.068-8.312,11.839-14.61,11.839h-20.4V16.21Zm20.4,64.484h-20.4V53.237h20.655c14.61,0,16.373,8.564,16.373,13.6C176.34,76.411,168.783,80.693,159.715,80.693Z" transform="translate(261.443 2.75)"/>
    <path id="Path_38" data-name="Path 38" d="M207.565,66.231V32.981c0-16.625-11.083-24.181-29.471-24.181-8.06,0-14.106,1.763-18.892,5.038-5.542,3.526-8.312,9.572-9.068,17.632H165.5c.5-2.519,1.259-5.29,3.275-6.8a15.841,15.841,0,0,1,9.32-3.023c6.3,0,12.091,3.275,12.091,8.564,0,7.809-9.572,5.793-20.4,8.06C157.943,40.79,145.6,46.835,145.6,60.689c0,13.1,12.594,21.411,24.937,21.411,8.06,0,13.854-2.015,20.907-8.06a50.431,50.431,0,0,0,1.008,6.045h17.632c-2.267-4.282-2.519-9.068-2.519-13.854ZM190.94,50.866c0,4.786-.252,10.076-3.275,12.594-3.023,2.771-7.053,4.534-12.846,4.534-10.579,0-11.587-6.8-11.587-8.564,0-1.511,1.008-5.29,3.778-7.053,3.023-2.015,7.557-3.275,13.854-4.786,5.29-1.259,8.312-2.015,10.076-3.023Z" transform="translate(312.838 18.22)"/>
    <path id="Path_39" data-name="Path 39" d="M201.641,24.577a16.83,16.83,0,0,0-17.128,17.128V79.489H166.88V10.723H183.5l.756,7.053h.252c5.29-6.3,10.831-8.816,16.121-8.816,2.015,0,3.778.252,4.282.756V24.577C203.908,24.829,203.4,24.577,201.641,24.577Z" transform="translate(358.561 18.564)"/>
    <path id="Path_40" data-name="Path 40" d="M214.841,24.577a16.83,16.83,0,0,0-17.128,17.128V79.489H180.08V10.723H196.7l.756,7.053h.252c5.29-6.3,10.831-8.816,16.121-8.816,2.015,0,3.778.252,4.282.756V24.577C217.108,24.829,216.6,24.577,214.841,24.577Z" transform="translate(386.923 18.564)"/>
    <path id="Path_41" data-name="Path 41" d="M225.961,66.735c-8.564,0-16.121-6.8-16.121-15.617V50.11h48.867c0-23.426-12.594-41.31-33.753-41.31S191.2,26.936,191.2,44.568c0,18.64,12.343,37.28,35.264,37.28,23.93,0,31.234-20.4,31.234-23.426H239.563c-2.267,4.786-6.8,8.312-13.6,8.312ZM224.7,23.158c8.312,0,14.61,5.793,14.61,14.358H209.84A14.541,14.541,0,0,1,224.7,23.158Z" transform="translate(410.815 18.22)"/>
    <path id="Path_42" data-name="Path 42" d="M213.52,1.6h17.632V95.3H213.52V1.6Z" transform="translate(458.772 2.75)"/>
  </g>
</svg>
