<svg xmlns="http://www.w3.org/2000/svg" width="64.621" height="22.873" viewBox="0 0 64.621 22.873">
  <g id="divider" transform="translate(-392.719 -103.872)">
    <path id="Path_131" data-name="Path 131" d="M407.955,119.778c-7.435,2.6-13.081-2.1-13.988-7.632-.454-2.766,1.4-4.921,4.609-5.448,3.1-.509,5.8,1.041,6.4,3.635l0-.017c-.639-2.749-3.668-4.516-6.932-3.98-3.383.555-5.736,3.373-5.256,6.294.958,5.844,7.219,9.68,13.985,8.57s14.439-12.323,25.19-16.186C417.527,110.846,415.391,117.174,407.955,119.778Z" fill="#3d4245" fill-rule="evenodd"/>
    <path id="Path_132" data-name="Path 132" d="M400.739,125.464c22.643,7.519,28.022-20.6,50.658-18.771C425.781,104.618,422.935,130.484,400.739,125.464Z" fill="#3d4245" fill-rule="evenodd"/>
    <path id="Path_133" data-name="Path 133" d="M404.3,107.161a2.331,2.331,0,1,0,2.814,1.9A2.4,2.4,0,0,0,404.3,107.161Z" fill="#3d4245" fill-rule="evenodd"/>
    <path id="Path_134" data-name="Path 134" d="M397.922,122.762c22.643,7.519,28.021-20.6,50.659-18.771C422.964,101.916,420.119,127.782,397.922,122.762Z" fill="#3d4245" fill-rule="evenodd"/>
    <path id="Path_135" data-name="Path 135" d="M442.1,111.347c7.436-2.6,13.082,2.1,13.989,7.633.455,2.765-1.4,4.921-4.61,5.448-3.1.508-5.8-1.042-6.4-3.636l0,.017c.638,2.75,3.669,4.517,6.931,3.981,3.383-.555,5.737-3.374,5.257-6.295-.959-5.843-7.219-9.68-13.984-8.569s-14.441,12.323-25.192,16.186C432.531,120.278,434.668,113.952,442.1,111.347Z" fill="#3d4245" fill-rule="evenodd"/>
    <path id="Path_136" data-name="Path 136" d="M445.757,123.965a2.331,2.331,0,1,0-2.815-1.9A2.4,2.4,0,0,0,445.757,123.965Z" fill="#3d4245" fill-rule="evenodd"/>
    <path id="Path_137" data-name="Path 137" d="M441.171,119.409a1.131,1.131,0,1,0-1.365-.92A1.165,1.165,0,0,0,441.171,119.409Z" fill="#3d4245" fill-rule="evenodd"/>
    <path id="Path_138" data-name="Path 138" d="M409.434,113.7a1.131,1.131,0,1,0-1.366-.92A1.166,1.166,0,0,0,409.434,113.7Z" fill="#3d4245" fill-rule="evenodd"/>
  </g>
</svg>
