<svg xmlns="http://www.w3.org/2000/svg" width="28.698" height="23.519">
	<path data-name="Path 139" d="M14.349 12.09q-.375.385-.809.754l.809.732.806-.73a12.038 12.038 0 0 1-.806-.756zm-1.163 1.041a12.754 12.754 0 0 1-8.781 2.632c-2.547-.375-4.367-2.126-4.4-3.9-.039-1.83 1.572-3.689 4.273-4.107a12.915 12.915 0 0 1 8.916 2.633l.825-.749c-3.735-3.451-3.391-7.212-1.782-8.763a2.982 2.982 0 0 1 4.293.074 4.664 4.664 0 0 1 1.049 3.715 8.4 8.4 0 0 1-2.89 4.974l.826.75a13.1 13.1 0 0 1 8.916-2.632c2.564.377 4.252 2.15 4.271 3.941.022 1.924-1.637 3.869-4.629 4.127a13.655 13.655 0 0 1-8.56-2.691l-.824.746c3.685 3.408 3.4 7.127 1.841 8.7a2.984 2.984 0 0 1-4.353-.012 4.676 4.676 0 0 1-1.051-3.715 8.422 8.422 0 0 1 2.893-4.976l-.829-.748zm.355-2.455c.281.24.551.492.807.755.25-.257.521-.509.808-.753l-.808-.733-.807.731zm6.465-2.129a12.671 12.671 0 0 0-4.162 2.146l.873.791c5.879-3.545 9.7-.767 8.248 1.233-.664.912-2.524 1.117-3.744.988a11.319 11.319 0 0 1-4.5-1.666l-.869.787a12.915 12.915 0 0 0 4.179 2.16c2.961.883 7.235-.123 7.24-3.267s-4.22-4.073-7.261-3.172zm-4.515 2.429a10.772 10.772 0 0 0-.83.782 10.778 10.778 0 0 0 .834.779l.859-.779-.863-.782zm-6.8 4a12.661 12.661 0 0 0 4.16-2.146l-.873-.791c-5.877 3.545-9.7.767-8.246-1.233.662-.912 2.522-1.117 3.744-.988a11.265 11.265 0 0 1 4.5 1.666l.87-.787a12.7 12.7 0 0 0-5.268-2.426c-2.832-.533-6.393.932-6.15 3.612s4.25 3.984 7.261 3.093zm4.514-2.433a10.993 10.993 0 0 0 .832-.781 10.594 10.594 0 0 0-.834-.78l-.859.78.861.781zm2.98 9.359a3.474 3.474 0 0 0 .922-3 7.991 7.991 0 0 0-2.759-4.721c-5.893 5.442-1.1 10.52 1.837 7.717zm.932-10.14c6.506 3.826 8.924-.477 5.885-1.4-1.692-.512-4.076.332-5.885 1.4zm-5.539 0c-6.5-3.827-8.922.476-5.883 1.4 1.692.512 4.074-.332 5.883-1.4zm.932-10.141a3.473 3.473 0 0 0-.92 3 8 8 0 0 0 2.758 4.721C20.24 3.9 15.448-1.18 12.51 1.625z" fill="#3d4245" fill-rule="evenodd"/>
</svg>
