<svg xmlns="http://www.w3.org/2000/svg" width="94.139" height="15.698">
	<g fill="#3d4245">
		<g data-name="Group 6">
			<path data-name="Path 20" d="M5.754 7.163a2.927 2.927 0 0 0 .353-4.815C3.773.272.139 2.224.007 5.281c-.19 4.338 5.115 10.27 17.058 5.382 9.166-3.75 19.675-13.828 27.119-7.247 5.568 4.922-.389 13.616-5.436 11.075-4.545-2.287-.4-7.466 2.518-5.265a2.406 2.406 0 0 1 1.09 2.92c.543-.325.852-2.224-.787-3.364a3.288 3.288 0 0 0-2.557-.716c-4.886.779-4.4 7.781 1.939 7.63 5.365-.127 8.95-8.712 3.168-13.3-10.918-8.667-22.371 8.944-34.742 9.379C.133 12.099-1 2.39 3.863 2.261a2.73 2.73 0 0 1 1.874.653c2.145 2.143.393 3.728.018 4.25z"/>
			<path data-name="Path 21" d="M88.385 7.163a2.927 2.927 0 0 1-.353-4.815c2.334-2.076 5.968-.124 6.1 2.933.19 4.338-5.115 10.27-17.058 5.382-9.166-3.75-19.675-13.828-27.119-7.247-5.568 4.922.389 13.616 5.436 11.075 4.545-2.287.4-7.466-2.519-5.265a2.407 2.407 0 0 0-1.089 2.92c-.543-.325-.852-2.224.787-3.364a3.288 3.288 0 0 1 2.557-.716c4.886.779 4.4 7.781-1.939 7.63-5.365-.127-8.95-8.712-3.168-13.3 10.918-8.667 22.371 8.944 34.742 9.379 9.243.324 10.377-9.385 5.513-9.514a2.733 2.733 0 0 0-1.874.653c-2.144 2.143-.392 3.728-.017 4.25z"/>
		</g>
		<g data-name="Group 7">
			<path data-name="Path 22" d="M50.815 7.438a1.906 1.906 0 0 1 .23 3.136 2.465 2.465 0 0 1-3.975-1.911c-.125-2.824 3.332-6.689 11.111-3.505 5.97 2.443 12.815 9.007 17.665 4.721 3.627-3.206-.254-8.87-3.541-7.214-2.961 1.49-.261 4.863 1.64 3.429a1.564 1.564 0 0 0 .709-1.9 1.5 1.5 0 0 1-.511 2.192 2.155 2.155 0 0 1-1.666.467c-3.183-.509-2.867-5.069 1.263-4.97 3.495.082 5.829 5.674 2.063 8.662-7.111 5.646-14.571-5.826-22.629-6.109-6.022-.21-6.76 6.113-3.592 6.2a1.771 1.771 0 0 0 1.218-.43 1.782 1.782 0 0 0 .011-2.768z"/>
			<path data-name="Path 23" d="M43.324 7.438a1.906 1.906 0 0 0-.23 3.136 2.465 2.465 0 0 0 3.975-1.911c.124-2.824-3.333-6.689-11.111-3.505-5.97 2.443-12.815 9.007-17.665 4.721-3.627-3.206.254-8.87 3.541-7.214 2.961 1.49.261 4.863-1.64 3.429a1.564 1.564 0 0 1-.709-1.9 1.5 1.5 0 0 0 .511 2.192 2.155 2.155 0 0 0 1.666.467c3.182-.509 2.867-5.069-1.263-4.97-3.495.082-5.829 5.674-2.063 8.662 7.111 5.646 14.571-5.826 22.629-6.109 6.021-.21 6.76 6.113 3.592 6.2a1.769 1.769 0 0 1-1.221-.425 1.782 1.782 0 0 1-.011-2.768z"/>
		</g>
	</g>
</svg>
