<svg xmlns="http://www.w3.org/2000/svg" width="175" height="175" viewBox="0 0 175 175">
  <path id="fb" d="M26,175H83V113H62V92H83V67c0-14.107,10.893-26,25-26h26V61H113c-5.643,0-10,5.357-10,11V92h30l-4,21H103v62h46a26.33,26.33,0,0,0,26-26V26A26.33,26.33,0,0,0,149,0H26A26.33,26.33,0,0,0,0,26V149A26.33,26.33,0,0,0,26,175ZM10,26A16.5,16.5,0,0,1,26,10H149c8.464,0,15,7.536,15,16V149a14.776,14.776,0,0,1-15,15H113V123h25l7-41H113V72h31V31H108A36.17,36.17,0,0,0,72,67V82H52v41H72v41H26c-8.464,0-16-6.536-16-15Zm0,0" fill="#3d4245"/>
</svg>
