<svg id="insta" xmlns="http://www.w3.org/2000/svg" width="175" height="175" viewBox="0 0 175 175">
  <path id="Path_141" data-name="Path 141" d="M26,175H149a26.33,26.33,0,0,0,26-26V26A26.33,26.33,0,0,0,149,0H26A26.33,26.33,0,0,0,0,26V149A26.33,26.33,0,0,0,26,175ZM10,26A16.5,16.5,0,0,1,26,10H149c8.464,0,15,7.536,15,16V149a14.776,14.776,0,0,1-15,15H26c-8.464,0-16-6.536-16-15Zm0,0" fill="#3d4245"/>
  <path id="Path_142" data-name="Path 142" d="M166.725,212.725a46,46,0,1,0-46-46A46.017,46.017,0,0,0,166.725,212.725Zm0-81c19.75,0,36,15.25,36,35a36.17,36.17,0,0,1-36,36c-19.75,0-35-16.25-35-36A34.476,34.476,0,0,1,166.725,131.725Zm0,0" transform="translate(-79.725 -79.725)" fill="#3d4245"/>
  <path id="Path_143" data-name="Path 143" d="M375.857,92.192a16.5,16.5,0,0,0,16-16c0-8.464-7.536-15-16-15a14.776,14.776,0,0,0-15,15C360.857,84.656,367.393,92.192,375.857,92.192Zm0-21c2.821,0,6,2.179,6,5s-3.179,5-6,5a5,5,0,0,1,0-10Zm0,0" transform="translate(-237.857 -40.192)" fill="#3d4245"/>
</svg>
