<svg xmlns="http://www.w3.org/2000/svg" width="175" height="175" viewBox="0 0 175 175">
  <g id="li" transform="translate(0 -0.334)">
    <path id="Path_149" data-name="Path 149" d="M45.606,175.334H3.182V55.486H45.606Zm-35-8.485H37.121V63.97H10.606ZM24.394,48.061C11.161,48.061,0,37.949,0,24.728A24.715,24.715,0,0,1,24.394.334c13.229,0,23.333,11.177,23.333,24.394A22.911,22.911,0,0,1,24.394,48.061Zm0-40.3c-8.939,0-16.97,8.05-16.97,16.97s8.03,15.909,16.97,15.909A15.733,15.733,0,0,0,40.3,24.728C40.3,15.809,33.325,7.758,24.394,7.758ZM175,175.334H132.576V117c0-17.383-1.775-25.455-13.788-25.455-12.153,0-16.97,6.61-16.97,24.394v59.394H59.394V55.486H99.7V63.97c6.53-6.153,16.757-10.606,29.7-10.606C169.451,53.364,175,81.4,175,109.576v65.758Zm-35-8.485h27.576V109.576c0-30.37-6.818-48.788-38.182-48.788-15.47,0-24.768,8.567-28.636,15.909l-2.121,2.121H92.273V63.97H66.818V166.849H93.333V115.94c0-8.888.773-32.879,25.455-32.879C140.706,83.061,140,105.311,140,117v49.848Z" fill="#3d4245"/>
  </g>
</svg>
