<svg xmlns="http://www.w3.org/2000/svg" width="143.302" height="175" viewBox="0 0 143.302 175">
  <path id="pinterest" d="M17.964,101.8l5.988,3.992,2.994-8.983c3.957-14.749,3.6-14.332,3.992-15.969a45.581,45.581,0,0,1-2-24.952h0c3.965-26.176,47.528-34,67.869-16.967,8.775,7.348,12.512,18.425,9.981,31.938-1.817,9.7-4.99,17.124-9.981,22.956-6.89,8.051-15.826,8.788-20.96,5.988C73.941,98.766,69.9,95.4,71.86,88.828c2.807-9.4,8.383-23.666,8.983-33.934.535-9.147-5.227-16.032-13.973-17.965-9.748-2.156-21.093,2.7-25.95,14.971-3.5,8.827-3.515,17.913,0,27.946.114,2.475-2.958,12.431-4.99,19.961-6.143,22.766-14.183,53.99-5.988,69.865l2.994,4.99,3.992-2.994c13.516-8.787,21.622-34.979,25.95-50.9,11.392,8.436,27.948,9.793,43.915,2,25.633-12.519,42.5-42.595,33.934-75.854C131.178,9.84,94.216-5.141,56.889,1,26.118,6.057,6.191,26.335,1,50.9-3.385,71.628,3.363,92.244,17.964,101.8ZM10.978,52.9c4.64-21.948,22.991-37.822,47.907-41.919,29.923-4.921,63.382,5.006,71.861,37.927,7.843,30.445-9.6,54.428-28.944,63.877-11.87,5.8-27.251,7.571-36.929-4.99l-6.987-7.985-2,9.981c-3.516,13.188-9.828,35.942-18.963,47.907-1.794-14.8,4.726-40.118,8.983-55.892,4.064-15.059,6.35-21.138,4.99-24.952-2.749-7.715-3.574-14.448-1-20.96,2.886-7.289,9.871-10.11,14.971-8.983,1.842.408,5.339,2.021,4.99,7.985-.516,8.821-5.357,22.141-7.985,30.94-2.76,9.236.708,18.445,8.983,22.956,9.3,5.068,23.86,3.785,33.934-7.985,6.2-7.248,9.817-16.41,11.977-27.946,1.67-8.918,1.453-16.7-1-23.954A40.581,40.581,0,0,0,103.8,30.94C77.452,8.881,24.323,19.559,18.962,53.9a59.906,59.906,0,0,0,1,27.946c-.406,1.777-1.386,3.649-2,5.988C10.858,79.474,8.122,66.407,10.978,52.9Zm0,0" transform="translate(0.323 0.337)" fill="#3d4245"/>
</svg>
