<svg xmlns="http://www.w3.org/2000/svg" width="1445.964" height="100" viewBox="0 0 1445.964 100">
	<g id="potterybarn" transform="translate(0 0.006)">
		<path id="Path_20" data-name="Path 20" d="M21.453,51.938V97.419h4.291v2.145H0V97.419H4.291V2.166H0V.021H30.464c2.145,0,9.869-.429,14.159,2.145,4.72,3,6.007,7.294,6.007,12.014v23.6a11.877,11.877,0,0,1-5.149,10.3c-4.291,3-12.014,3.433-18.021,3.433H21.453ZM33.467,9.031c0-1.716,0-3.433-.858-4.72C30.893,2.595,29.177,2.166,26.6,2.166H21.453V49.793H27.89a7.808,7.808,0,0,0,4.72-1.716c1.287-1.287.858-3.862.858-5.149Z" transform="translate(0 0)"/>
		<path id="Path_21" data-name="Path 21" d="M75.336,78.7c0,9.01-6.007,15.017-21.883,14.588C36.291,93.292,32,87.714,32,78.7V18.2C32,7.478,39.723,1.9,54.312,1.9c14.159,0,21.453,6.865,21.453,16.3V78.7ZM59.89,10.481c0-5.149-1.716-6.865-5.578-6.865-4.291,0-6.436,1.716-6.436,6.865V84.71c0,3.862,1.287,6.865,6.007,6.865s6.436-1.716,6.436-6.865V10.481Z" transform="translate(105.302 6.273)"/>
		<path id="Path_22" data-name="Path 22" d="M109.939,2.3V20.321h-2.145V6.591h-13.3V90.259h3.862V92.4H75.185V90.259h3.862V6.591h-13.3V20.75H63.6V2.3Z" transform="translate(209.288 7.589)"/>
		<path id="Path_23" data-name="Path 23" d="M142.24,2.3V20.321h-2.145V6.591h-13.3V90.259h3.862V92.4h-23.17V90.259h3.862V6.591h-13.3V20.75H95.9V2.3Z" transform="translate(315.578 7.589)"/>
		<path id="Path_24" data-name="Path 24" d="M147.308,44.349h17.163V36.626h2.145V56.363h-2.145V48.64H147.308v39.9h17.163V74.813h2.145V92.4H128V90.259h3.862V4.445H128V2.3h39.045V19.892H164.9V6.591H147.737V44.349Z" transform="translate(421.209 7.589)"/>
		<path id="Path_25" data-name="Path 25" d="M193.155,46.086c0,.429,5.578.858,9.869,3.862,3.862,2.574,4.291,5.578,4.291,9.44V89.851h3.862V92H191.867V55.954c0-3,.858-5.578-2.145-7.294-1.716-1.287-4.72-.858-6.865-.858h-5.149V89.851h3.862V92H158.4V89.851h3.862V4.037H158.4V2.321h27.46c1.716,0,9.01-.429,12.872,2.145,4.291,2.574,5.578,6.436,5.578,11.156V34.93c0,.858.429,5.149-3,8.152A20.021,20.021,0,0,1,193.155,46.086Zm-4.72-35.613c0-1.716.429-3-.858-4.291a7.149,7.149,0,0,0-4.72-1.716h-4.72V46.515h5.578a5.509,5.509,0,0,0,4.291-1.716c1.287-1.287.858-3.433.858-4.72V10.473Z" transform="translate(521.246 7.569)"/>
		<path id="Path_26" data-name="Path 26" d="M209.466,60.224l-16.3-55.779H189.3V2.3h23.17V4.445h-3.862l13.73,47.2,12.014-47.2H230.92V2.3h12.872V4.445H239.93L225.342,60.224V90.259H229.2V92.4h-23.17V90.259H209.9V60.224Z" transform="translate(622.929 7.589)"/>
		<path id="Path_27" data-name="Path 27" d="M278.35,62.644V84.956c0,3.862,0,6.436-3,9.869-3.862,4.291-11.585,4.72-15.017,4.72H223V97.4h4.291V2.145H223V0h36.042A17.247,17.247,0,0,1,270.2,3.433c5.578,4.291,5.149,9.44,5.149,9.44V36.9a11.213,11.213,0,0,1-3.433,7.723c-4.72,3.862-8.152,3.862-8.152,4.291,0,.858,6.436.429,11.156,4.72C277.063,55.779,278.35,58.353,278.35,62.644ZM244.453,97.4h9.44c.429,0,3.433,0,5.149-1.287a5.466,5.466,0,0,0,2.145-4.72V56.208a6.376,6.376,0,0,0-.858-3.862c-.858-1.287-3-1.716-4.72-1.716H244.453Zm0-95.253v45.91h9.01a4.821,4.821,0,0,0,3.433-1.287,6.376,6.376,0,0,0,.858-3.862V8.152c0-.429.429-3.862-.858-4.72-.858-1.287-4.72-1.287-5.149-1.287h-7.294Z" transform="translate(733.825 0.021)"/>
		<path id="Path_28" data-name="Path 28" d="M279.353,4.445h-3.862V2.3H299.52V4.445h-4.291l15.446,85.814h3.862V92.4h-23.6V90.259h3.432l-3.862-24.886H271.2l-5.149,24.886h3.862V92.4H257.9V90.259h3.432Zm-7.294,57.066h17.592L281.5,12.6Z" transform="translate(848.67 7.589)"/>
		<path id="Path_29" data-name="Path 29" d="M327.155,46.086c0,.429,5.578.858,9.869,3.862,3.862,2.574,4.291,5.578,4.291,9.44V89.851h3.862V92H325.868V55.954c0-3,.858-5.578-2.145-7.294-1.716-1.287-4.72-.858-6.865-.858h-5.149V89.851h3.862V92H292.4V89.851h3.862V4.037H292.4V2.321h27.46c1.716,0,9.01-.429,12.872,2.145,4.291,2.574,5.578,6.436,5.578,11.156V34.93c0,.858.429,5.149-3,8.152A20.019,20.019,0,0,1,327.155,46.086Zm-5.149-35.613c0-1.716.429-3-.858-4.291a7.148,7.148,0,0,0-4.72-1.716h-4.72V46.515h5.578a5.509,5.509,0,0,0,4.291-1.716c1.287-1.287.858-3.433.858-4.72V10.473Z" transform="translate(962.199 7.569)"/>
		<path id="Path_30" data-name="Path 30" d="M353.46,92.4,334.581,17.747V90.259h3.862V92.4H326V90.259h3.862V4.445H326V2.3h19.308l19.737,77.662V4.445h-3.862V2.3H373.2V4.445h-3.862V92.4Z" transform="translate(1072.766 7.589)"/>
	</g>
</svg>
