<svg xmlns="http://www.w3.org/2000/svg" width="76.351" height="75.076">
	<path data-name="Path 11" d="M72.634 21.27L42.849 1.416a8.4 8.4 0 0 0-9.337 0L3.727 21.27A8.352 8.352 0 0 0 0 28.228V66.71a8.375 8.375 0 0 0 8.365 8.365H34.89a2.106 2.106 0 0 0 0-4.208H8.365a4.162 4.162 0 0 1-4.158-4.158v-38.49A4.162 4.162 0 0 1 6.06 24.76L35.845 4.906a4.19 4.19 0 0 1 4.671 0L70.301 24.76a4.162 4.162 0 0 1 1.852 3.459v38.269a4.153 4.153 0 0 1-4.539 4.144c-10.894-1-21.184-4.993-28.909-11.28S26.726 45.281 26.59 37.293a4.9 4.9 0 0 1 4.376-5.111 4.725 4.725 0 0 1 5.088 4.721 2.106 2.106 0 0 0 2.115 2.12 2.106 2.106 0 0 0 2.106-2.106 4.734 4.734 0 1 1 9.468 0 26.321 26.321 0 0 1-5.361 15.433 2.104 2.104 0 0 0 3.4 2.478 30.365 30.365 0 0 0 6.173-17.9 8.937 8.937 0 0 0-15.786-5.758 7.767 7.767 0 0 0-.749-.8 8.874 8.874 0 0 0-6.745-2.374 9.106 9.106 0 0 0-8.285 9.383c.313 18.714 20.013 35.168 44.846 37.461a8.365 8.365 0 0 0 9.114-8.338V28.233a8.352 8.352 0 0 0-3.717-6.958z" fill="#3d4245"/>
</svg>
