<svg id="tick-circle" xmlns="http://www.w3.org/2000/svg" width="175" height="175" viewBox="0 0 175 175">
  <path id="Path_145" data-name="Path 145" d="M149,26A87.744,87.744,0,0,0,87,0C63.674,0,42.493,9.507,26,26S0,63.674,0,87a87.743,87.743,0,0,0,26,62c16.494,16.494,37.674,26,61,26a88.781,88.781,0,0,0,88-88C175,63.674,165.494,42.494,149,26ZM87,164a77,77,0,1,1,77-77A77.022,77.022,0,0,1,87,164Z" fill="#3d4245"/>
  <path id="Path_146" data-name="Path 146" d="M214.194,170.659a4.837,4.837,0,0,0-7,0l-45,45-24-23a4.95,4.95,0,0,0-7,7l27,27a6.608,6.608,0,0,0,4,2c1.309,0,2-1,3-2l49-48A6.087,6.087,0,0,0,214.194,170.659Z" transform="translate(-85.194 -111.659)" fill="#3d4245"/>
</svg>
