<svg xmlns="http://www.w3.org/2000/svg" width="214.448" height="175" viewBox="0 0 214.448 175">
  <path id="twitter" d="M214.53,22.983c-13.463.62-13.183,1.1-14.705,1.225L207.177.925s-24.326,9.391-30.635,11.029c-16.57-14.893-41.212-15.724-58.82-4.9C103.3,15.917,95.533,30.923,98.115,48.716,70.051,44.822,45.709,31.928,27.041,9.5L20.914,2.15l-3.676,8.578a49.158,49.158,0,0,0-4.9,33.086c.908,4.52,1.539,8.218,3.676,12.254l-4.9-1.225v8.578a45.152,45.152,0,0,0,7.353,26.959,49.547,49.547,0,0,0,6.127,7.353l-2.451-1.225,2.451,9.8A47.768,47.768,0,0,0,49.1,134.5c-11.3,4.8-20.531,8.544-35.537,13.48L.081,151.652,12.336,159c4.835,2.644,22.333,10.831,39.213,13.48,37.523,5.885,79.4,1.106,107.837-24.508,23.955-21.575,32.268-51.392,30.635-83.329a21.322,21.322,0,0,1,3.676-13.48C199.009,44.076,214.5,23.03,214.53,22.983ZM183.894,43.815a31.579,31.579,0,0,0-6.127,20.832c1.648,32.214-8.023,57.7-26.959,74.751C128.688,159.32,94.086,166.518,54,160.23A106.966,106.966,0,0,1,31.942,154.1c12.581-4.329,22.3-8.5,37.988-15.93l22.058-9.8L68.7,127.143c-11.583-.741-22.256-6.816-28.185-15.93a48.674,48.674,0,0,0,9.8-1.225l23.283-6.127L50.324,97.733c-11.3-2.768-18.643-9.519-22.058-14.705-2.242-3.408-2.8-6.585-3.676-9.8a50.73,50.73,0,0,0,8.578,1.225L55.225,76.9,38.069,63.421C25.781,53.837,20.98,39.277,24.59,25.433c38.352,39.779,83.7,36.936,88.23,37.988-1-9.691-.964-10.106-1.225-11.029-5.8-20.52,6.516-30.785,12.254-34.312,11.985-7.366,30.938-8.459,44.115,3.676a10.148,10.148,0,0,0,9.8,2.451c3.233-.8,5.98-1.525,8.578-2.451l-4.9,15.93H188.8C187.493,39.435,185.774,41.307,183.894,43.815Zm0,0" transform="translate(-0.081 0.261)" fill="#3d4245"/>
</svg>
