<svg xmlns="http://www.w3.org/2000/svg" width="253.055" height="100" viewBox="0 0 253.055 100">
  <g id="wayfair" transform="translate(-492.925 -542.638)">
    <g id="Group_1" data-name="Group 1" transform="translate(675.784 542.638)">
      <path id="Path_1" data-name="Path 1" d="M414.039,182.464,411.3,172.13a1.006,1.006,0,0,0-.712-.713l-10.335-2.739a1,1,0,0,0-.966.261l-6.927,6.927,14.494,14.49,6.923-6.927a.994.994,0,0,0,.26-.964" transform="translate(-370.65 -168.641)" fill="#86c771"/>
      <path id="Path_2" data-name="Path 2" d="M354.462,214.472,357.2,224.8a1,1,0,0,0,.711.712l10.336,2.741a1,1,0,0,0,.964-.26l6.929-6.929-14.49-14.492-6.931,6.931a1,1,0,0,0-.259.966" transform="translate(-354.426 -184.862)" fill="#f8cf1f"/>
      <path id="Path_3" data-name="Path 3" d="M368.244,168.671l-10.335,2.741a1,1,0,0,0-.711.711l-2.739,10.333a1,1,0,0,0,.26.965l6.931,6.929,14.487-14.487-6.927-6.931a1,1,0,0,0-.966-.261" transform="translate(-354.425 -168.638)" fill="#c6d534"/>
    </g>
    <g id="Group_2" data-name="Group 2" transform="translate(492.925 549.862)">
      <path id="Path_4" data-name="Path 4" d="M413.686,213.41l-6.827-6.83-14.492,14.489,6.83,6.831a1.246,1.246,0,0,0,1.2.323l10.062-2.667a1.245,1.245,0,0,0,.883-.885l2.669-10.062a1.246,1.246,0,0,0-.323-1.2" transform="translate(-187.792 -192.089)" fill="#ba83b9"/>
      <rect id="Rectangle_1" data-name="Rectangle 1" width="20.49" height="20.494" transform="translate(190.084 14.489) rotate(-45)" fill="#772b7e"/>
      <path id="Path_5" data-name="Path 5" d="M49.3,285.572l-10.292-30.9a.714.714,0,0,0-.678-.492H35.924a1,1,0,0,1-1-.994v-3.744a1,1,0,0,1,1-1H51.568a1,1,0,0,1,1,1v3.744a1,1,0,0,1-1,1l-1.98,0a.725.725,0,0,0-.672.956s3.851,11.566,5.278,15.872a.717.717,0,0,0,1.332,0c2.3-5.98,8.46-21.922,8.46-21.922a1,1,0,0,1,.916-.646h4.646a1.031,1.031,0,0,1,.88.674s7.616,21.022,7.93,21.879a.718.718,0,0,0,1.346,0l5.312-15.878a.7.7,0,0,0-.66-.936H82.133a1,1,0,0,1-1-.994v-3.744a1,1,0,0,1,1-1H96.364a1,1,0,0,1,.964,1.261c-.371,1.087-.9,2.6-1.289,3.786a.985.985,0,0,1-.951.689H92.795a.714.714,0,0,0-.676.486l-10.492,30.91a1,1,0,0,1-.947.682H75.108a1,1,0,0,1-.938-.659s-7.9-21.8-8.164-22.518a.72.72,0,0,0-1.342-.025c-.338.877-8.736,22.563-8.736,22.563a1,1,0,0,1-.93.638H50.249a1,1,0,0,1-.949-.689" transform="translate(-34.925 -209.994)" fill="#772b7e"/>
      <path id="Path_6" data-name="Path 6" d="M176.187,280.328c-2.1.1-3.117-.889-3.117-3.265V260c0-7.494-6.27-12.224-13.326-12.224-10.943,0-14.9,5.186-15.346,10.985a1,1,0,0,0,1,1.072h5.379a1.006,1.006,0,0,0,1-.922,5.423,5.423,0,0,1,5.718-5.231c3.772,0,6.044,1.882,6.044,6.2v3.7h-1.946c-6.711,0-11.382.86-14.5,2.828s-4.682,5.548-4.682,9.772a10.181,10.181,0,0,0,3.216,7.708,10.721,10.721,0,0,0,7.923,2.915,13.438,13.438,0,0,0,5.673-1.28,18.609,18.609,0,0,0,4.761-3.085.719.719,0,0,1,1.108.178c1.548,2.672,3.193,3.561,6.414,3.561,2.887,0,4.286-2.714,5.536-4.318a1,1,0,0,0-.853-1.536M163.54,277.6c0,.215-.364.559-.531.694a12.757,12.757,0,0,1-2.893,1.851,7.071,7.071,0,0,1-2.992.559,5.322,5.322,0,0,1-3.944-1.617,5.719,5.719,0,0,1-1.481-4.015,5.31,5.31,0,0,1,2.525-4.822c1.668-1.1,4.39-1.633,7.706-1.633h1.609Z" transform="translate(-80.893 -209.707)" fill="#772b7e"/>
      <path id="Path_7" data-name="Path 7" d="M256.423,219.194c-4.3,0-7.128,1.358-9.278,3.955s-3.221,5.481-3.221,10.68v1.39a.711.711,0,0,1-.693.717h-14.57a1,1,0,0,0-1,1v3.739a1,1,0,0,0,1,1h.778a.721.721,0,0,1,.665.98s-5.309,12.315-7.432,17.234a.715.715,0,0,1-1.3,0c-2.177-4.986-7.51-17.219-7.51-17.219a.712.712,0,0,1,.654-.994h2.355a1,1,0,0,0,1-1v-3.744a1,1,0,0,0-1-1l-19.205,0a1,1,0,0,0-.882,1.469c.5.93,1.677,3.116,2.016,3.744a1.018,1.018,0,0,0,.84.526h2.869a.711.711,0,0,1,.646.41s13.751,29.45,14.189,30.382a.919.919,0,0,1-.06.687c-.136.343-2.659,5.462-2.659,5.462-1.366,2.918-2.906,5.425-5.855,5.435-1.918.005-3.394-1.426-4.1-2a1,1,0,0,0-1.334.092c-.513.554-2,2.087-2.794,2.9a1.009,1.009,0,0,0,.018,1.34,11.976,11.976,0,0,0,8.014,3.867c4.679.181,8.563-2.25,10.806-7.313,0,0,16.265-35.958,18.458-40.873a.72.72,0,0,1,.629-.391c1.028,0,4.593.007,4.593.007a.714.714,0,0,1,.713.714v24.952a.922.922,0,0,1-.178.557c-.846,1.058-2.522,3.165-3.361,4.226a1,1,0,0,0,.777,1.623h15.7a1,1,0,0,0,1-1v-3.7a1,1,0,0,0-1-1h-2.708a.709.709,0,0,1-.709-.714v-24.96a.71.71,0,0,1,.709-.713h4.829a.984.984,0,0,0,.786-.379c.715-.941,2.115-2.773,2.864-3.755a1,1,0,0,0-.794-1.6h-7.807a.711.711,0,0,1-.711-.713v-5.545c0-2.7,1.381-5.381,4.273-5.381,3.246,0,3.764,2.72,3.9,4.84a1.022,1.022,0,0,0,.993.958h4.626a1.012,1.012,0,0,0,.945-.984c0-6.968-4.419-9.915-11.5-9.915" transform="translate(-104.1 -197.483)" fill="#772b7e"/>
      <path id="Path_8" data-name="Path 8" d="M438.986,248.158a7.885,7.885,0,0,0-2.818-.383c-4.307,0-6.38,1.342-9.1,5.193a.717.717,0,0,1-1.292-.434v-3.377a1,1,0,0,0-1-1H417.6a.94.94,0,0,0-.738.354s-2.249,2.814-2.989,3.758a1.007,1.007,0,0,0,.786,1.628c.3,0,.9,0,.9,0a.718.718,0,0,1,.713.713V279.57a.98.98,0,0,1-.165.556c-.7.868-2.5,3.127-3.374,4.232a1,1,0,0,0,.766,1.618h15.445a1,1,0,0,0,1-1v-3.7a1,1,0,0,0-1-1h-2.456a.712.712,0,0,1-.711-.714v-18.66a1.306,1.306,0,0,1,.1-.451c1.679-3.173,5.476-5.368,8.295-5.368a14.023,14.023,0,0,1,4.515.68c.534.137,1-.446,1-1l0-5.652a1.172,1.172,0,0,0-.7-.957" transform="translate(-196.412 -209.707)" fill="#772b7e"/>
      <path id="Path_9" data-name="Path 9" d="M393.912,280.569h-2.441a.714.714,0,0,1-.713-.713V249.43a1,1,0,0,0-1.008-.985H382.6a1,1,0,0,0-.794.394c-.367.474-2.218,2.8-2.959,3.718a1,1,0,0,0,.755,1.625h.944a.732.732,0,0,1,.69.713v24.947a1.133,1.133,0,0,1-.172.557c-.8,1.016-2.507,3.154-3.351,4.215a1,1,0,0,0,.759,1.648l2.739-.014h4.721l5.059.014a.865.865,0,0,0,.693-.3c.747-.945,2.186-2.75,2.931-3.683a1,1,0,0,0-.7-1.709" transform="translate(-181.422 -209.993)" fill="#772b7e"/>
      <path id="Path_10" data-name="Path 10" d="M345.7,280.328c-2.1.1-3.115-.889-3.115-3.265V260c0-7.494-6.27-12.224-13.326-12.224-10.943,0-14.9,5.186-15.346,10.985a1,1,0,0,0,1,1.072h5.379a1,1,0,0,0,.994-.922,5.426,5.426,0,0,1,5.72-5.231c3.772,0,6.044,1.882,6.044,6.2v3.7h-1.946c-6.711,0-11.384.86-14.5,2.828s-4.682,5.548-4.682,9.772a10.175,10.175,0,0,0,3.216,7.708,10.721,10.721,0,0,0,7.923,2.915,13.43,13.43,0,0,0,5.671-1.28,18.588,18.588,0,0,0,4.763-3.085.717.717,0,0,1,1.106.178c1.55,2.672,3.195,3.561,6.416,3.561,2.887,0,4.286-2.714,5.536-4.318a1,1,0,0,0-.855-1.536M333.054,277.6c0,.215-.365.559-.531.694a12.794,12.794,0,0,1-2.893,1.851,7.076,7.076,0,0,1-2.992.559,5.329,5.329,0,0,1-3.946-1.617,5.725,5.725,0,0,1-1.479-4.015,5.307,5.307,0,0,1,2.525-4.822c1.668-1.1,4.39-1.633,7.706-1.633h1.609Z" transform="translate(-153.389 -209.707)" fill="#772b7e"/>
      <path id="Path_11" data-name="Path 11" d="M472.638,255.452H472.1l-.85-1.229h-.418v1.229h-.449v-3.285h1.264a.94.94,0,0,1,.972,1.03.92.92,0,0,1-.858,1.01Zm-1.807-2.87v1.225h.782a.617.617,0,0,0,.017-1.225Z" transform="translate(-221.157 -211.585)" fill="#772b7e"/>
      <path id="Path_12" data-name="Path 12" d="M469.992,250.492a2.427,2.427,0,1,1-2.427,2.427,2.429,2.429,0,0,1,2.427-2.427m0-.413a2.84,2.84,0,1,0,2.839,2.84,2.84,2.84,0,0,0-2.839-2.84" transform="translate(-219.776 -210.692)" fill="#772b7e"/>
    </g>
  </g>
</svg>
