<svg xmlns="http://www.w3.org/2000/svg" width="557.147" height="100" viewBox="0 0 557.147 100">
	<g id="westelm" transform="translate(0 0)">
		<g id="Group_4" data-name="Group 4" transform="translate(0 0)">
			<path id="Path_13" data-name="Path 13" d="M393.12,19.5c-10.141.036-15.564,5.071-19.138,8.977-1.593,1.742-2.036,2.548-2.813,2.516s-.959-.874-1.688-2.341a15.33,15.33,0,0,0-14.473-8.9c-10.018,0-16.067,5.9-19.36,9.193-.712.712-2.061,1.194-2.061-.33V22.856c0-2.31-.612-2.31-4.383-2.3-3.667.012-4.812,0-4.806,2.326V89.046c.009,1.794,1.146,1.752,4.754,1.752,2.919,0,4.665.094,4.665-1.752V56.026c0-16.254,7.683-26.76,17.5-26.793,9.968-.036,11.784,8.881,11.81,15.826V89.441c0,1.958,1.728,1.357,4.475,1.357,2.8,0,4.72.541,4.72-1.357V56.026c0-16.254,7.38-26.751,18.773-26.793,8.545-.03,10.952,6.961,10.979,13.87V88.611c0,2.281.693,2.193,4.442,2.193s4.875-.22,4.875-2.193V40.639c-.046-13.366-7.731-21.177-18.273-21.141" transform="translate(145.754 8.761)" fill="#565458" fill-rule="evenodd"/>
			<path id="Path_14" data-name="Path 14" d="M309.478,2.475c0-1.535-.22-2.475-1.812-2.475L291.951.265c-1.154,0-.975.967-.975,4.251,0,2.419-.093,3.965.975,3.965,6.09,0,7.992,2.716,7.992,6.676V96.929c.009,2.148-.419,2.219,4.584,2.2,5.164-.016,4.96.2,4.951-2.235Z" transform="translate(130.733 0)" fill="#565458" fill-rule="evenodd"/>
			<path id="Path_15" data-name="Path 15" d="M99.683,26.307c6.431,0,15.292,5.242,15.319,13.635.023,5.9-.616,6.7-2.17,6.7-.6,0-27.1.09-29.659.09-1.725,0-1.861-.939-1.861-2.567,0-7.086,6.644-17.863,18.37-17.863M82.676,55.18l34.678-.109c2.783-.01,4.948-.861,5.8-3.288A31.524,31.524,0,0,0,124.4,39.221c-1.084-17.08-15.384-22.014-24.3-22.014-19.473,0-30.524,16.377-30.524,38.339,0,12.313,2.378,18.592,7.5,26.153,5.165,7.558,14.8,10.415,22.7,10.387,7.854-.029,20.986-4.751,23.75-7.977.526-.615.58-2.568.161-4.638-.359-1.77-1.057-4.222-2.328-3.736-2.141.817-8.626,6.409-20.377,6.451-20.131.072-20.437-19.284-20.6-23.158-.155-3.771.488-3.841,2.294-3.846" transform="translate(31.26 7.732)" fill="#565458" fill-rule="evenodd"/>
			<path id="Path_16" data-name="Path 16" d="M213.122,85.921c-2.149.848-4.086,2.346-9.732,2.365-10.3.036-12.6-8.045-12.625-14.829V36.491c.058-1.522.571-1.826,2.525-1.826l19.766-.057c.78,0,.636-1.354.636-4.7s.177-4.87-1.071-4.87l-19.331.049c-1.736,0-2.525-.545-2.525-3.02V4.654c0-2.7-.27-2.755-4.764-1.387-4.915,1.5-4.915,1.5-4.915,3.432V22.065c0,1.83-.413,3.091-2.565,3.091l-7.4.012c-1.8,0-1.241,2.065-1.232,4.738.012,2.829-.042,4.842,1.232,4.842l7.7-.083c1.438.138,2.259.206,2.259,1.668V67.411c.064,17.763,2.461,21.682,6.444,25.745,3.97,4.131,9.436,5.26,13.332,5.245,3.957-.014,9.581-1.6,13.266-3.248,1.886-.845,2.081-1.449,1.358-5.439-.745-4.1-1.209-4.249-2.364-3.793" transform="translate(76.294 1.073)" fill="#565458" fill-rule="evenodd"/>
			<path id="Path_17" data-name="Path 17" d="M152.287,50.546c-6.3-2.909-15.108-4.731-15.108-13.358,0-7.347,6.938-10.9,11.744-10.9a32.676,32.676,0,0,1,11.29,2.617c4.17,1.745,4.041.271,5.71-2.484,1.193-1.968,1.523-3.838.986-4.293-2.622-2.213-9.761-5.073-17.961-5.045-14.876.052-22.615,9.483-22.576,20.106.036,10.255,8.691,16.719,16.844,20.485,8.364,3.8,16.853,6.68,16.877,13.76.016,4.684-4.058,11.47-12.647,11.47-7.168,0-14.473-4.248-16.984-5.449-1.4-.67-1.973.809-3.045,3.061-1.358,2.854-2.326,4.98-1.255,5.632,5.146,3.139,13.913,6.2,21.179,6.18,13.35-.048,23.7-8.134,23.657-21.143-.046-13.608-12.458-17.635-18.711-20.637" transform="translate(56.48 7.675)" fill="#565458" fill-rule="evenodd"/>
			<path id="Path_18" data-name="Path 18" d="M269.28,26.307c6.431,0,15.292,5.242,15.319,13.635.023,5.9-.616,6.7-2.17,6.7-.6,0-27.1.09-29.659.09-1.725,0-1.861-.939-1.861-2.567,0-7.086,6.644-17.863,18.37-17.863M252.273,55.18l34.678-.109c2.783-.01,4.948-.861,5.8-3.288A31.47,31.47,0,0,0,294,39.221c-1.083-17.08-15.383-22.014-24.3-22.014-19.473,0-30.525,16.377-30.525,38.339,0,12.313,2.38,18.592,7.5,26.153,5.165,7.558,14.8,10.415,22.7,10.387,7.854-.029,20.986-4.751,23.75-7.977.526-.615.58-2.568.161-4.638-.359-1.77-1.057-4.222-2.329-3.736-2.139.817-8.625,6.409-20.376,6.451-20.131.072-20.437-19.284-20.6-23.158-.154-3.771.49-3.841,2.3-3.846" transform="translate(107.461 7.732)" fill="#565458" fill-rule="evenodd"/>
			<path id="Path_19" data-name="Path 19" d="M78.682,18.918c-3.877,0-4.915-.309-5.6,1.241-.23.517-10.057,50.878-10.057,50.878-.387,1.491-.674,2.136-1.441,2.136-.859,0-1.219-.41-1.5-1.71L46,20.807c-.358-1.465-.975-2.006-4.417-2.006s-4.2.357-4.6,2.006L23.317,71.472c-.368,1.28-.761,1.7-1.617,1.7-.768,0-1.1-1.49-1.494-2.981L9.623,19.91c-.6-1.9-1.548-1.426-5.081-1.426-3.493,0-4.571.184-4.541,2.162.014.912,14.951,64.623,15.581,67.287.758,2.865,1.725,3.8,5.761,3.784,4.715-.016,5.3-2.064,5.994-3.784L40.164,42.306c.435-1.281.5-1.978,1.42-1.978s.987.7,1.423,1.978L55.832,87.933c.7,1.72,1.28,3.768,6,3.784,4.035.014,5-.919,5.761-3.784.629-2.664,15.206-66.9,15.183-67.615-.054-1.7-1.438-1.4-4.09-1.4" transform="translate(0 8.282)" fill="#565458" fill-rule="evenodd"/>
		</g>
	</g>
</svg>
