<svg id="whatsapp" xmlns="http://www.w3.org/2000/svg" width="175" height="175" viewBox="0 0 175 175">
  <path id="Path_147" data-name="Path 147" d="M42,162c13.494,8.12,29.147,13,45,13,48.038,0,88-39.9,88-88,0-48.04-39.906-87-88-87A87.011,87.011,0,0,0,0,87c0,16.064,3.881,31.5,12,45L0,175ZM10,87a77,77,0,1,1,77,77,75.523,75.523,0,0,1-41-12l-2-1-29,9,9-29-2-2A78.335,78.335,0,0,1,10,87Zm0,0" fill="#3d4245"/>
  <path id="Path_148" data-name="Path 148" d="M122.809,132.055c1.69,8.873,6.4,26.4,21,41a76.705,76.705,0,0,0,40,21c10.162,1.935,25.713,2.287,33-5l4-4a11.383,11.383,0,0,0,3-8,9.126,9.126,0,0,0-3-7l-16-17a12.167,12.167,0,0,0-16,0l-4,4c-2.481,2.481-7.5,2.461-10,0l-16-16c-.024-.025.025-.976,0-1a6.364,6.364,0,0,1,0-9l4-4a10.425,10.425,0,0,0,0-15l-16-16a10.446,10.446,0,0,0-15,0l-4,4h0C121.993,105.873,120.115,117.91,122.809,132.055Zm12-25c4.264-4.167,3.53-4,4-4,.161,0,.877-.123,1,0,17.12,17.212,16,16.507,16,17,0,.172.121-.123,0,0l-4,4a17.281,17.281,0,0,0,0,24l16,17c.025.024-.025-.025,0,0a17.248,17.248,0,0,0,24,0l4-4a.772.772,0,0,1,1,0c17.12,17.21,17,15.507,17,16,0,.173.121.877,0,1l-5,4c-2.784,2.784-11.435,4.2-23,2-7.718-1.471-22.335-5.335-35-18s-16.53-28.282-18-36C130.6,118.491,132.025,109.838,134.809,107.055Zm0,0" transform="translate(-79.809 -61.055)" fill="#3d4245"/>
</svg>
